# xmcd
#
# Track frame offsets: 
#        150
#        14859
#        21719
#        26461
#        82242
#        138488
#        154738
#        167316
#        175766
#        195577
#        204380
#        223859
#        237466
#        250129
#        263432
#
# Disc length: 3724 seconds
#
# Revision: 0
# Processed by: cddbd v1.5.2PL0 Copyright (c) Steve Scherf et al.
# Submitted via: ExactAudioCopy v0.99pb5
#
DISCID=d10e8a0f
DTITLE=Cream  - Secret History - Disc 1 (MS1)  
DYEAR=1900
DGENRE=
TTITLE0=Cat's Squirrel
TTITLE1=Beauty Queen
TTITLE2=Rollin' and Tumblin"
TTITLE3=Coffee Song
TTITLE4=Toad
TTITLE5=Sweet Wine 1
TTITLE6=Sweet Wine 2
TTITLE7=I Feel Free 1
TTITLE8=I Feel Free 2
TTITLE9=I Feel Free 3
TTITLE10=I Feel Free 4
TTITLE11=Wrapping Paper 1
TTITLE12=Wrapping Paper 2
TTITLE13=You Make Me Feel 1
TTITLE14=You Make Me Feel 2
EXTD=
EXTT0=
EXTT1=
EXTT2=
EXTT3=
EXTT4=
EXTT5=
EXTT6=
EXTT7=
EXTT8=
EXTT9=
EXTT10=
EXTT11=
EXTT12=
EXTT13=
EXTT14=
PLAYORDER=
